<mxfile host="app.diagrams.net" agent="Mozilla/5.0 (Macintosh; Intel Mac OS X 10_15_7) AppleWebKit/537.36 (KHTML, like Gecko) Chrome/120.0.0.0 Safari/537.36" version="24.7.7">
  <diagram name="第 1 页" id="2kuI5vqeoujSwtPeEiwz">
    <mxGraphModel dx="1593" dy="846" grid="0" gridSize="10" guides="1" tooltips="1" connect="1" arrows="1" fold="1" page="1" pageScale="1" pageWidth="827" pageHeight="1169" background="#000000" math="0" shadow="0">
      <root>
        <mxCell id="0" />
        <mxCell id="1" parent="0" />
        <mxCell id="ImGRT0Zdahzt3c2HBwAb-8" style="edgeStyle=orthogonalEdgeStyle;rounded=0;orthogonalLoop=1;jettySize=auto;html=1;exitX=0.5;exitY=1;exitDx=0;exitDy=0;entryX=0.5;entryY=1;entryDx=0;entryDy=0;strokeColor=#FFFFFF;dashed=1;" edge="1" parent="1" source="ImGRT0Zdahzt3c2HBwAb-7" target="m9w0L7mDfg-Hy0Zf4kCx-15">
          <mxGeometry relative="1" as="geometry">
            <mxPoint x="512" y="717" as="targetPoint" />
            <Array as="points">
              <mxPoint x="773" y="670" />
              <mxPoint x="435" y="670" />
            </Array>
          </mxGeometry>
        </mxCell>
        <mxCell id="ImGRT0Zdahzt3c2HBwAb-12" value="缓存删除事件" style="edgeLabel;html=1;align=center;verticalAlign=middle;resizable=0;points=[];" vertex="1" connectable="0" parent="ImGRT0Zdahzt3c2HBwAb-8">
          <mxGeometry x="0.0376" y="2" relative="1" as="geometry">
            <mxPoint x="-1" as="offset" />
          </mxGeometry>
        </mxCell>
        <mxCell id="ImGRT0Zdahzt3c2HBwAb-10" style="edgeStyle=orthogonalEdgeStyle;rounded=0;orthogonalLoop=1;jettySize=auto;html=1;exitX=1;exitY=0.5;exitDx=0;exitDy=0;entryX=0;entryY=0.5;entryDx=0;entryDy=0;strokeColor=#FFFFFF;strokeWidth=2;startArrow=none;startFill=0;dashed=1;" edge="1" parent="1">
          <mxGeometry relative="1" as="geometry">
            <mxPoint x="905" y="432" as="sourcePoint" />
            <mxPoint x="998.8400000000001" y="432.1700000000001" as="targetPoint" />
          </mxGeometry>
        </mxCell>
        <mxCell id="ImGRT0Zdahzt3c2HBwAb-17" value="刷新缓存" style="edgeLabel;html=1;align=center;verticalAlign=middle;resizable=0;points=[];" vertex="1" connectable="0" parent="ImGRT0Zdahzt3c2HBwAb-10">
          <mxGeometry x="-0.1427" y="-1" relative="1" as="geometry">
            <mxPoint x="5" y="-2" as="offset" />
          </mxGeometry>
        </mxCell>
        <mxCell id="ImGRT0Zdahzt3c2HBwAb-7" value="" style="rounded=0;whiteSpace=wrap;html=1;fillColor=#4D4D4D;" vertex="1" parent="1">
          <mxGeometry x="632" y="154" width="271" height="428" as="geometry" />
        </mxCell>
        <mxCell id="ImGRT0Zdahzt3c2HBwAb-5" value="" style="rounded=0;whiteSpace=wrap;html=1;fillColor=#4D4D4D;" vertex="1" parent="1">
          <mxGeometry x="998.84" y="154.17" width="271" height="428" as="geometry" />
        </mxCell>
        <mxCell id="m9w0L7mDfg-Hy0Zf4kCx-15" value="" style="rounded=0;whiteSpace=wrap;html=1;fillColor=#4D4D4D;" parent="1" vertex="1">
          <mxGeometry x="278" y="156" width="271" height="428" as="geometry" />
        </mxCell>
        <mxCell id="egfz6zBa7lYmq5XDyndJ-17" value="" style="verticalLabelPosition=bottom;verticalAlign=top;html=1;shape=hexagon;perimeter=hexagonPerimeter2;arcSize=6;size=0.27;fillColor=#FF0000;" parent="1" vertex="1">
          <mxGeometry x="697" y="177.57" width="130" height="111.43" as="geometry" />
        </mxCell>
        <mxCell id="egfz6zBa7lYmq5XDyndJ-18" value="&lt;span style=&quot;font-size: 18px;&quot;&gt;服务实例&lt;/span&gt;" style="text;html=1;align=center;verticalAlign=middle;whiteSpace=wrap;rounded=0;" parent="1" vertex="1">
          <mxGeometry x="728" y="218.28" width="75" height="30" as="geometry" />
        </mxCell>
        <mxCell id="egfz6zBa7lYmq5XDyndJ-19" value="" style="verticalLabelPosition=bottom;verticalAlign=top;html=1;shape=hexagon;perimeter=hexagonPerimeter2;arcSize=6;size=0.27;fillColor=#00CC00;" parent="1" vertex="1">
          <mxGeometry x="694" y="439.85" width="130" height="111.43" as="geometry" />
        </mxCell>
        <mxCell id="egfz6zBa7lYmq5XDyndJ-20" value="&lt;span style=&quot;font-size: 18px;&quot;&gt;服务实例&lt;/span&gt;" style="text;html=1;align=center;verticalAlign=middle;whiteSpace=wrap;rounded=0;" parent="1" vertex="1">
          <mxGeometry x="724" y="478.01000000000005" width="76" height="30" as="geometry" />
        </mxCell>
        <mxCell id="m9w0L7mDfg-Hy0Zf4kCx-1" value="" style="html=1;shadow=0;dashed=0;align=center;verticalAlign=middle;shape=mxgraph.arrows2.arrow;dy=0;dx=30;notch=30;direction=north;rotation=90;fillColor=#FFFFFF;strokeColor=#000000;flipV=0;flipH=1;" parent="1" vertex="1">
          <mxGeometry x="414.005" y="213.005" width="108.89" height="41.12" as="geometry" />
        </mxCell>
        <mxCell id="m9w0L7mDfg-Hy0Zf4kCx-16" style="edgeStyle=orthogonalEdgeStyle;rounded=0;orthogonalLoop=1;jettySize=auto;html=1;exitX=1;exitY=0.5;exitDx=0;exitDy=0;exitPerimeter=0;entryX=0;entryY=0.5;entryDx=0;entryDy=0;strokeColor=#FF3333;dashed=1;" parent="1" source="m9w0L7mDfg-Hy0Zf4kCx-2" target="egfz6zBa7lYmq5XDyndJ-17" edge="1">
          <mxGeometry relative="1" as="geometry" />
        </mxCell>
        <mxCell id="m9w0L7mDfg-Hy0Zf4kCx-17" value="Push" style="edgeLabel;html=1;align=center;verticalAlign=middle;resizable=0;points=[];" parent="m9w0L7mDfg-Hy0Zf4kCx-16" vertex="1" connectable="0">
          <mxGeometry x="-0.2213" y="2" relative="1" as="geometry">
            <mxPoint as="offset" />
          </mxGeometry>
        </mxCell>
        <mxCell id="m9w0L7mDfg-Hy0Zf4kCx-2" value="" style="html=1;shadow=0;dashed=0;align=center;verticalAlign=middle;shape=mxgraph.arrows2.arrow;dy=0;dx=30;notch=30;direction=north;rotation=90;fillColor=#FF0000;strokeColor=#000000;flipV=0;flipH=1;" parent="1" vertex="1">
          <mxGeometry x="433.885" y="213.005" width="108.89" height="41.12" as="geometry" />
        </mxCell>
        <mxCell id="m9w0L7mDfg-Hy0Zf4kCx-3" value="" style="html=1;shadow=0;dashed=0;align=center;verticalAlign=middle;shape=mxgraph.arrows2.arrow;dy=0;dx=30;notch=30;direction=north;rotation=90;fillColor=#FFFFFF;strokeColor=#000000;flipV=0;flipH=1;" parent="1" vertex="1">
          <mxGeometry x="411.995" y="344.005" width="108.89" height="41.12" as="geometry" />
        </mxCell>
        <mxCell id="m9w0L7mDfg-Hy0Zf4kCx-18" style="edgeStyle=orthogonalEdgeStyle;rounded=0;orthogonalLoop=1;jettySize=auto;html=1;exitX=1;exitY=0.5;exitDx=0;exitDy=0;exitPerimeter=0;entryX=0;entryY=0.5;entryDx=0;entryDy=0;dashed=1;strokeColor=#FFE599;" parent="1" source="m9w0L7mDfg-Hy0Zf4kCx-4" target="m9w0L7mDfg-Hy0Zf4kCx-13" edge="1">
          <mxGeometry relative="1" as="geometry" />
        </mxCell>
        <mxCell id="m9w0L7mDfg-Hy0Zf4kCx-19" value="Push" style="edgeLabel;html=1;align=center;verticalAlign=middle;resizable=0;points=[];" parent="m9w0L7mDfg-Hy0Zf4kCx-18" vertex="1" connectable="0">
          <mxGeometry x="-0.2169" relative="1" as="geometry">
            <mxPoint x="3" as="offset" />
          </mxGeometry>
        </mxCell>
        <mxCell id="m9w0L7mDfg-Hy0Zf4kCx-4" value="" style="html=1;shadow=0;dashed=0;align=center;verticalAlign=middle;shape=mxgraph.arrows2.arrow;dy=0;dx=30;notch=30;direction=north;rotation=90;fillColor=#FFE599;strokeColor=#000000;flipV=0;flipH=1;" parent="1" vertex="1">
          <mxGeometry x="431.875" y="344.005" width="108.89" height="41.12" as="geometry" />
        </mxCell>
        <mxCell id="m9w0L7mDfg-Hy0Zf4kCx-5" value="" style="html=1;shadow=0;dashed=0;align=center;verticalAlign=middle;shape=mxgraph.arrows2.arrow;dy=0;dx=30;notch=30;direction=north;rotation=90;fillColor=#FFFFFF;strokeColor=#000000;flipV=0;flipH=1;" parent="1" vertex="1">
          <mxGeometry x="409.005" y="475.005" width="108.89" height="41.12" as="geometry" />
        </mxCell>
        <mxCell id="m9w0L7mDfg-Hy0Zf4kCx-21" style="edgeStyle=orthogonalEdgeStyle;rounded=0;orthogonalLoop=1;jettySize=auto;html=1;exitX=1;exitY=0.5;exitDx=0;exitDy=0;exitPerimeter=0;entryX=0;entryY=0.5;entryDx=0;entryDy=0;strokeColor=#97D077;dashed=1;" parent="1" source="m9w0L7mDfg-Hy0Zf4kCx-6" target="egfz6zBa7lYmq5XDyndJ-19" edge="1">
          <mxGeometry relative="1" as="geometry" />
        </mxCell>
        <mxCell id="m9w0L7mDfg-Hy0Zf4kCx-22" value="Push" style="edgeLabel;html=1;align=center;verticalAlign=middle;resizable=0;points=[];" parent="m9w0L7mDfg-Hy0Zf4kCx-21" vertex="1" connectable="0">
          <mxGeometry x="-0.2309" y="-1" relative="1" as="geometry">
            <mxPoint x="8" as="offset" />
          </mxGeometry>
        </mxCell>
        <mxCell id="m9w0L7mDfg-Hy0Zf4kCx-6" value="" style="html=1;shadow=0;dashed=0;align=center;verticalAlign=middle;shape=mxgraph.arrows2.arrow;dy=0;dx=30;notch=30;direction=north;rotation=90;fillColor=#00CC00;strokeColor=#000000;flipV=0;flipH=1;" parent="1" vertex="1">
          <mxGeometry x="428.885" y="475.005" width="108.89" height="41.12" as="geometry" />
        </mxCell>
        <mxCell id="m9w0L7mDfg-Hy0Zf4kCx-8" value="&lt;font color=&quot;#ff0000&quot;&gt;Transform&lt;/font&gt;" style="text;html=1;align=center;verticalAlign=middle;whiteSpace=wrap;rounded=0;" parent="1" vertex="1">
          <mxGeometry x="431.88" y="283" width="60" height="30" as="geometry" />
        </mxCell>
        <mxCell id="m9w0L7mDfg-Hy0Zf4kCx-9" value="&lt;font color=&quot;#ffe599&quot;&gt;Transform&lt;/font&gt;" style="text;html=1;align=center;verticalAlign=middle;whiteSpace=wrap;rounded=0;" parent="1" vertex="1">
          <mxGeometry x="433.88" y="413" width="60" height="30" as="geometry" />
        </mxCell>
        <mxCell id="m9w0L7mDfg-Hy0Zf4kCx-10" value="&lt;font color=&quot;#00cc00&quot;&gt;Transform&lt;/font&gt;" style="text;html=1;align=center;verticalAlign=middle;whiteSpace=wrap;rounded=0;" parent="1" vertex="1">
          <mxGeometry x="433.45" y="546" width="60" height="30" as="geometry" />
        </mxCell>
        <mxCell id="m9w0L7mDfg-Hy0Zf4kCx-11" value="&lt;font style=&quot;font-size: 14px;&quot; color=&quot;#ffffff&quot;&gt;事件总线&lt;/font&gt;" style="shape=cylinder3;whiteSpace=wrap;html=1;boundedLbl=1;backgroundOutline=1;size=15;direction=south;fillColor=#9E4846;strokeColor=#FFFFFF;" parent="1" vertex="1">
          <mxGeometry x="288" y="327.17" width="122" height="88" as="geometry" />
        </mxCell>
        <mxCell id="m9w0L7mDfg-Hy0Zf4kCx-13" value="" style="verticalLabelPosition=bottom;verticalAlign=top;html=1;shape=hexagon;perimeter=hexagonPerimeter2;arcSize=6;size=0.27;fillColor=#FFE599;" parent="1" vertex="1">
          <mxGeometry x="697" y="308.74" width="130" height="111.43" as="geometry" />
        </mxCell>
        <mxCell id="m9w0L7mDfg-Hy0Zf4kCx-14" value="&lt;span style=&quot;font-size: 18px;&quot;&gt;服务实例&lt;/span&gt;" style="text;html=1;align=center;verticalAlign=middle;whiteSpace=wrap;rounded=0;" parent="1" vertex="1">
          <mxGeometry x="729" y="349.45" width="75" height="30" as="geometry" />
        </mxCell>
        <mxCell id="8YSsli9hQhtiDxE-2XIZ-1" value="" style="verticalLabelPosition=bottom;verticalAlign=top;html=1;shape=hexagon;perimeter=hexagonPerimeter2;arcSize=6;size=0.27;fillColor=#A680B8;" parent="1" vertex="1">
          <mxGeometry x="33" y="315.46" width="130" height="111.43" as="geometry" />
        </mxCell>
        <mxCell id="8YSsli9hQhtiDxE-2XIZ-2" value="&lt;font style=&quot;font-size: 18px;&quot;&gt;Jins&lt;/font&gt;" style="text;html=1;align=center;verticalAlign=middle;whiteSpace=wrap;rounded=0;" parent="1" vertex="1">
          <mxGeometry x="68" y="355.90999999999997" width="60" height="30" as="geometry" />
        </mxCell>
        <mxCell id="8YSsli9hQhtiDxE-2XIZ-5" style="edgeStyle=orthogonalEdgeStyle;rounded=0;orthogonalLoop=1;jettySize=auto;html=1;exitX=1;exitY=0.5;exitDx=0;exitDy=0;entryX=0.5;entryY=1;entryDx=0;entryDy=0;entryPerimeter=0;dashed=1;strokeColor=#FFFFFF;" parent="1" source="8YSsli9hQhtiDxE-2XIZ-1" target="m9w0L7mDfg-Hy0Zf4kCx-11" edge="1">
          <mxGeometry relative="1" as="geometry" />
        </mxCell>
        <mxCell id="8YSsli9hQhtiDxE-2XIZ-6" value="Pub" style="edgeLabel;html=1;align=center;verticalAlign=middle;resizable=0;points=[];" parent="8YSsli9hQhtiDxE-2XIZ-5" vertex="1" connectable="0">
          <mxGeometry x="-0.0186" y="1" relative="1" as="geometry">
            <mxPoint x="-13" as="offset" />
          </mxGeometry>
        </mxCell>
        <mxCell id="ImGRT0Zdahzt3c2HBwAb-1" value="二级缓存Redis" style="image;sketch=0;aspect=fixed;html=1;points=[];align=center;fontSize=12;image=img/lib/mscae/Cache_Redis_Product.svg;" vertex="1" parent="1">
          <mxGeometry x="1089" y="210" width="90.68" height="76.17" as="geometry" />
        </mxCell>
        <mxCell id="ImGRT0Zdahzt3c2HBwAb-2" value="二级缓存Redis" style="image;sketch=0;aspect=fixed;html=1;points=[];align=center;fontSize=12;image=img/lib/mscae/Cache_Redis_Product.svg;" vertex="1" parent="1">
          <mxGeometry x="1013" y="345" width="96.43" height="81" as="geometry" />
        </mxCell>
        <mxCell id="ImGRT0Zdahzt3c2HBwAb-4" value="二级缓存Redis" style="image;sketch=0;aspect=fixed;html=1;points=[];align=center;fontSize=12;image=img/lib/mscae/Cache_Redis_Product.svg;" vertex="1" parent="1">
          <mxGeometry x="1170" y="341.01" width="96.43" height="81" as="geometry" />
        </mxCell>
        <mxCell id="ImGRT0Zdahzt3c2HBwAb-13" style="edgeStyle=orthogonalEdgeStyle;rounded=0;orthogonalLoop=1;jettySize=auto;html=1;exitX=0.5;exitY=0;exitDx=0;exitDy=0;exitPerimeter=0;entryX=0.5;entryY=0;entryDx=0;entryDy=0;strokeColor=#FFFFFF;dashed=1;" edge="1" parent="1" source="ImGRT0Zdahzt3c2HBwAb-6" target="ImGRT0Zdahzt3c2HBwAb-7">
          <mxGeometry relative="1" as="geometry">
            <Array as="points">
              <mxPoint x="101" y="97" />
              <mxPoint x="769" y="97" />
            </Array>
          </mxGeometry>
        </mxCell>
        <mxCell id="ImGRT0Zdahzt3c2HBwAb-16" value="重新加载" style="edgeLabel;html=1;align=center;verticalAlign=middle;resizable=0;points=[];" vertex="1" connectable="0" parent="ImGRT0Zdahzt3c2HBwAb-13">
          <mxGeometry x="-0.0301" y="3" relative="1" as="geometry">
            <mxPoint as="offset" />
          </mxGeometry>
        </mxCell>
        <mxCell id="ImGRT0Zdahzt3c2HBwAb-15" style="edgeStyle=orthogonalEdgeStyle;rounded=0;orthogonalLoop=1;jettySize=auto;html=1;exitX=0.5;exitY=1;exitDx=0;exitDy=0;exitPerimeter=0;entryX=0.5;entryY=0;entryDx=0;entryDy=0;strokeColor=#FFFFFF;dashed=1;" edge="1" parent="1" source="ImGRT0Zdahzt3c2HBwAb-6" target="8YSsli9hQhtiDxE-2XIZ-1">
          <mxGeometry relative="1" as="geometry" />
        </mxCell>
        <mxCell id="ImGRT0Zdahzt3c2HBwAb-6" value="&lt;font color=&quot;#ffffff&quot;&gt;MySQL&lt;/font&gt;" style="shape=cylinder3;whiteSpace=wrap;html=1;boundedLbl=1;backgroundOutline=1;size=15;fillColor=#7EA6E0;strokeColor=#FFFFFF;" vertex="1" parent="1">
          <mxGeometry x="60" y="147.28" width="75.75" height="101" as="geometry" />
        </mxCell>
        <mxCell id="ImGRT0Zdahzt3c2HBwAb-14" style="edgeStyle=orthogonalEdgeStyle;rounded=0;orthogonalLoop=1;jettySize=auto;html=1;exitX=1;exitY=0.5;exitDx=0;exitDy=0;entryX=0;entryY=0.5;entryDx=0;entryDy=0;strokeColor=#FFFFFF;strokeWidth=2;startArrow=classic;startFill=1;dashed=1;endArrow=none;endFill=0;" edge="1" parent="1">
          <mxGeometry relative="1" as="geometry">
            <mxPoint x="903" y="310" as="sourcePoint" />
            <mxPoint x="996.8400000000001" y="310.1700000000001" as="targetPoint" />
          </mxGeometry>
        </mxCell>
        <mxCell id="ImGRT0Zdahzt3c2HBwAb-18" value="读取缓存" style="edgeLabel;html=1;align=center;verticalAlign=middle;resizable=0;points=[];" vertex="1" connectable="0" parent="ImGRT0Zdahzt3c2HBwAb-14">
          <mxGeometry x="-0.0726" y="3" relative="1" as="geometry">
            <mxPoint x="4" y="2" as="offset" />
          </mxGeometry>
        </mxCell>
      </root>
    </mxGraphModel>
  </diagram>
</mxfile>
